<?xml version="1.0" standalone="no"?>
<!DOCTYPE svg PUBLIC "-//W3C//DTD SVG 20010904//EN"
 "http://www.w3.org/TR/2001/REC-SVG-20010904/DTD/svg10.dtd">
<svg version="1.0" xmlns="http://www.w3.org/2000/svg"
 width="144.000000pt" height="144.000000pt" viewBox="0 0 144.000000 144.000000"
 preserveAspectRatio="xMidYMid meet">
<metadata>
Created by potrace 1.11, written by Peter Selinger 2001-2013
</metadata>
<g transform="translate(0.000000,144.000000) scale(0.100000,-0.100000)"
fill="#000000" stroke="none">
<path d="M630 1361 c-8 -4 -37 -11 -65 -15 -33 -4 -58 -15 -76 -32 -15 -14
-30 -25 -34 -24 -12 4 -65 -40 -65 -54 0 -7 -9 -21 -20 -31 -12 -11 -18 -26
-15 -35 3 -9 -1 -30 -10 -46 -11 -22 -15 -65 -15 -180 0 -145 -1 -152 -21
-157 -18 -5 -20 -11 -15 -49 3 -25 10 -57 16 -73 6 -16 15 -75 21 -132 11
-124 37 -197 84 -243 45 -44 47 -90 7 -146 -38 -52 -48 -60 -139 -105 l-78
-38 610 0 610 0 -88 34 c-140 53 -195 85 -239 138 l-41 48 41 87 c43 90 65
200 54 271 -2 18 1 74 8 124 11 79 10 92 -3 102 -11 8 -18 48 -26 160 -17 219
-39 271 -126 294 -22 6 -61 28 -88 50 -26 22 -60 42 -75 45 -58 11 -198 16
-212 7z"/>
</g>
</svg>
